<svg version="1.2" baseProfile="tiny-ps" xmlns="http://www.w3.org/2000/svg" viewBox="0 0 32 32" width="32" height="32">
	<title>glyphicons-basic-175-play-806cb05551791b8dedd7f8d38fd3bd806e2d397fcfeaa00a5cc9129f0819fd07-svg</title>
	<style>
		tspan { white-space:pre }
		.shp0 { fill: #ffffff } 
	</style>
	<path id="play" class="shp0" d="M24.82 16.86L9.5 25.78C9.35 25.87 9.18 25.91 9 25.91C8.83 25.91 8.65 25.87 8.5 25.78C8.35 25.69 8.22 25.57 8.13 25.41C8.05 25.26 8 25.09 8 24.91L8 7.09C8 6.91 8.05 6.74 8.13 6.59C8.22 6.43 8.35 6.31 8.5 6.22C8.65 6.13 8.83 6.09 9 6.09C9.18 6.09 9.35 6.13 9.5 6.22L24.82 15.14C24.97 15.22 25.09 15.35 25.18 15.5C25.27 15.65 25.31 15.83 25.31 16C25.31 16.17 25.27 16.35 25.18 16.5C25.09 16.65 24.97 16.78 24.82 16.86Z" />
</svg>